<svg xmlns="http://www.w3.org/2000/svg" width="85.589" height="35.034" viewBox="32.458 20.216 85.589 35.034">
  <path d="M36.638 46.517c-.014-3.472-.262-6.938-.356-10.41-.008-.34-.015-.68-.02-1.02l.146.364c.54 1.36 1.103 2.67 1.84 3.92.73 1.25 1.098 2.58 1.52 3.94-.16.19-.256.39-.196.6-.033.15.06.25.212.31.537.46 1.55.23 2.113-.01.242-.1.474-.22.696-.35.29-.18.744-.57.613-.97-.024-.08-.05-.15-.072-.23.396-1.06.598-2.18.813-3.3.23-1.2.66-2.34 1.092-3.48l.12 1.56c.17 2.15.03 4.27.01 6.42-.01.72.04 1.38.18 2.08.06.29.31 1.53.23 1.58-.52.48-.37 1.07.32 1.22.77.17 1.75-.09 2.33-.63 1.01-.93.53-2.39.3-3.57-.39-1.97.07-4.18.01-6.19-.07-2.26-.43-4.5-.4-6.77.02-1.83.33-3.71-.31-5.47l.12-.6c.16-.88-2.76-.41-3.21.39-.29.24-.44.52-.32.81.03.07.05.14.08.22-.56 2.697-1.33 5.31-2.21 7.93-.34 1-.75 1.97-1.1 2.976-.49-.93-.99-1.85-1.39-2.846-1.16-2.89-2.2-5.81-3.61-8.6.16-1.29-2.7-1.15-3.26.02-.688 1.43-.598 2.87-.37 4.4.25 1.72.293 3.41.32 5.15.04 3.35.3 6.69.35 10.04-.3.33-.39.74-.08 1.16.14.186.31.32.48.46.76.636 2.947.117 2.94-1.05zm18.196-18.372c-.09-.613-3.416.084-3.3.885.26 1.776.167 3.56.136 5.352-.03 1.722.394 3.282.615 4.97.226 1.733-.07 3.503.126 5.236.09.812.64 2.312.08 3.018-.35.447 1.24.285 1.31.275.65-.12 1.51-.33 1.94-.87.55-.69.17-2.04.05-2.82-.26-1.73-.09-3.53-.16-5.28-.06-1.67-.64-3.25-.65-4.94-.01-1.95.16-3.87-.13-5.81zm3.124 6.645c.91 2.515 4.648 1.328 6.55 1.472 3.24.24 2.273 4.607 2.314 6.64.022 1.086.995 2.89.18 3.8-.503.555-1.67.588-2.353.645-.69.057-1.86.26-2.32-.39-.84-1.194.07-3.2-.1-4.568-.11-.78-3.43-.08-3.3.88.29 2.21-1.18 5.17 2.02 5.55 2.06.24 4.37-.14 6.31-.79 1.01-.34 1.94-.79 2.73-1.51.87-.8.58-1.98.35-2.99-.57-2.46.61-5.29-.99-7.46-1.74-2.35-4.96-.66-7.21-1.3-1.17-.33-1.18-1.91-1.17-2.86 0-1.21-.1-2.31-.24-3.49-.1-.89-.02-1.79.63-2.45.12-.12.72-.29.68-.28.3-.05.57-.06.9-.08 1.3-.06 3.88.19 3.38 2.09-.23.85 3.02.36 3.26-.53 1.02-3.88-6.14-3.13-8.16-2.6-1.86.49-3.92 1.55-4.02 3.7-.05 1.03.23 2 .27 3.02.05 1.15-.17 2.32.24 3.45zm14.455 1.87c-.053 1.8-.208 3.594-.22 5.394-.006.92.146 1.842.278 2.75.13.84.41 1.964.16 2.796-.2.646 3 .242 3.26-.587.46-1.497-.19-3.402-.34-4.918-.15-1.45-.03-2.945.07-4.42 1.71-.11 3.42-.25 5.12-.01.08 1.162.17 2.32.27 3.48.09.975.15 1.947.17 2.928.02.855.12 2.1-.18 2.913-.65 1.73 2.66 1.59 3.14.3.59-1.577.43-3.537.33-5.194-.13-2.06-.4-4.106-.47-6.166-.1-3.183-.58-6.33-.59-9.51-.01-1.66-3.34-1.1-3.33.288.01 3.04.42 6.037.57 9.068l.01.18c-1.64-.016-3.28.15-4.93.207.17-3.91-.51-7.78-.36-11.68.02-.49-3.26-.08-3.3.88-.14 3.78.5 7.52.38 11.29zm14.08 5.372c-.254.26-.16.414.045.506 0 1.474-.05 2.95-.178 4.424-.396.63.39.96.912.96h.082c.622 0 2.21-.293 2.29-1.148.16-1.77.21-3.535.195-5.3 1.33-1.445 2.43-3.056 3.41-4.747.64 1.248 1.24 2.505 1.67 3.86.72 2.31 1.94 4.432 2.63 6.75.46 1.522 3.75.622 3.3-.884-.7-2.32-1.86-4.462-2.64-6.75-.79-2.322-2-4.36-3.05-6.568.84-1.64 1.7-3.283 2.47-4.96.7-1.524 1.22-3.216 2.59-4.29.48-.375.46-.754-.22-.8-.74-.054-1.74.16-2.34.625-1.25.974-2.04 2.158-2.69 3.595-.78 1.726-1.6 3.42-2.46 5.117l-.19.373c-.42.264-.66.642-.54 1.064-.67 1.31-1.35 2.62-2.11 3.88-.26-4.66-.81-9.32-.97-13.99-.04-1.07-3.35-.41-3.3.88.2 5.78 1.02 11.55 1.08 17.34l-.04.04zm31.534-6.232c-.177-.7-1.155-.716-1.914-.648-.01-.28-.017-.566-.03-.85-.105-2.24-.138-4.53-.328-6.764-.176-2.07-1.335-2.812-3.346-2.734-2.04.077-4.41.443-6.31 1.183-2.2.853-3.42 2.47-3.84 4.784-.47 2.54.2 5.24.31 7.79.13 2.95.05 5.91.05 8.86 0 .49 3.29.03 3.29-.88 0-2.34.03-4.67 0-7.01-.01-.68-.05-1.37-.09-2.05 1.15-.5 3.1.01 4.25.12.93.09 1.82-.13 2.73-.24.01 1.95.09 3.91.17 5.85.04 1 .4 2.98-.3 3.8-.37.44 1.25.29 1.31.28.66-.12 1.48-.33 1.94-.87.8-.94.38-3.19.33-4.31-.07-1.61-.09-3.22-.12-4.83.97-.13 2.04-.73 1.85-1.44zm-6.662-.162c-1.928-.046-3.828-.35-5.65.036-.087-1.05-.184-2.098-.256-3.154-.14-1.962.09-4.702 1.92-5.896.49-.318 1.41-.264 1.98-.368.82-.147 1.64-.328 2.38.16 1.02.676.77 3.08.76 4.1 0 1.69.18 3.37.26 5.06-.47.046-.94.072-1.42.062zM51.16 24.322c-.05.18.012.356.118.497l.002.11c.004.09.01.19.013.28.062.19.182.34.362.44.325.19.737.23 1.108.19.44-.04.882-.19 1.245-.44l.216-.18c.438-.28.818-.7.612-1.15-.424-.94-.358-1.88-.35-2.87.005-.81-.812-1.06-1.5-.99-.61.05-1.828.49-1.832 1.28-.007.83-.062 1.69.092 2.52-.04.09-.064.19-.087.29zm61.576 29.183c-1.558-.585-3.283-.615-4.85-.787-1.604-.17-3.246-.41-4.885-.562-1.63.053-3.31.027-4.97.13l-4.88.267c-6.48.29-13 .253-19.51.107-6.51-.123-13.04-.477-19.63-.453-3.29.008-6.56.1-9.86.25-1.63.283-3.24.5-4.9.913-1.61.4-3.14.907-4.79 1.048 1.63.362 3.34.292 4.96.297 1.58.01 3.25.143 4.88.23 3.23-.17 6.49-.245 9.73-.25 6.49-.023 13.02.33 19.57.452 6.55.146 13.12.186 19.69-.11l4.91-.27c1.61-.07 3.2-.126 4.83-.066 1.63-.14 3.25-.33 4.92-.53 1.67-.24 3.22-.62 4.86-.51l.07.01.01-.05c.02-.17-.04-.32-.04-.48-.03.12-.03.26-.07.38z"/>
</svg>
