<?xml version="1.0" standalone="no"?>
<!DOCTYPE svg PUBLIC "-//W3C//DTD SVG 20010904//EN"
 "http://www.w3.org/TR/2001/REC-SVG-20010904/DTD/svg10.dtd">
<svg version="1.0" xmlns="http://www.w3.org/2000/svg"
 width="700.000000pt" height="700.000000pt" viewBox="0 0 700.000000 700.000000"
 preserveAspectRatio="xMidYMid meet">
<metadata>
Created by potrace 1.11, written by Peter Selinger 2001-2013
</metadata>
<g transform="translate(0.000000,700.000000) scale(0.100000,-0.100000)"
fill="#000000" stroke="none">
<path d="M1264 6985 c-46 -21 -94 -80 -94 -116 0 -17 11 -49 24 -72 13 -23 31
-65 40 -93 26 -81 76 -113 147 -94 44 12 107 62 120 96 18 49 -56 237 -106
270 -33 22 -94 26 -131 9z"/>
<path d="M4380 6853 c-14 -3 -53 -18 -88 -34 -74 -33 -170 -125 -220 -210 -43
-73 -97 -227 -118 -334 -16 -78 -18 -83 -36 -74 -25 14 -65 -12 -79 -49 -5
-15 -14 -36 -19 -47 -9 -18 -10 -18 -4 3 6 25 74 326 74 330 0 6 -67 0 -80 -8
-8 -5 -26 -51 -40 -102 -18 -68 -30 -94 -43 -96 -13 -3 -17 3 -17 22 0 22 -5
26 -28 26 -45 0 -72 -26 -72 -68 0 -20 -7 -46 -15 -56 -19 -25 -19 -46 0 -46
8 0 15 -7 15 -15 0 -17 -25 -20 -35 -5 -3 6 -17 10 -31 10 -22 0 -24 4 -24 44
0 26 6 48 15 56 21 18 19 40 -5 40 -19 0 -20 7 -20 95 l0 95 -31 0 c-66 0 -69
-7 -71 -153 -1 -84 -3 -114 -7 -82 -6 47 -8 50 -38 53 -23 2 -30 7 -26 17 6
16 -23 198 -37 233 -11 26 -36 28 -68 6 -27 -19 -29 -69 -7 -175 17 -82 28
-99 60 -99 18 0 21 -4 17 -25 -3 -20 -10 -25 -34 -25 -24 0 -32 -6 -41 -30 -6
-16 -14 -30 -18 -30 -4 0 -12 39 -18 88 -14 106 -19 116 -59 120 -29 3 -32 7
-43 60 -21 96 -38 111 -88 76 -22 -16 -23 -21 -17 -79 5 -52 4 -64 -10 -69
-23 -9 -36 -7 -29 4 3 5 -4 32 -16 60 -19 43 -25 50 -50 50 -42 0 -71 -32 -59
-65 25 -66 44 -88 70 -80 12 4 15 -5 15 -45 0 -43 -3 -50 -24 -55 -30 -8 -39
5 -47 67 -8 56 -24 73 -63 65 -28 -6 -29 -4 -56 71 -58 165 -143 280 -244 329
-48 24 -68 28 -141 28 -100 -1 -162 -24 -223 -83 -69 -67 -82 -102 -82 -227 1
-69 8 -140 19 -190 10 -44 20 -90 23 -102 4 -18 1 -23 -14 -23 -11 0 -23 -3
-27 -7 -4 -5 -132 -9 -284 -10 -152 -1 -325 -6 -385 -11 -99 -8 -110 -11 -137
-37 -17 -16 -36 -47 -42 -70 -7 -22 -21 -46 -33 -54 -50 -35 -116 -114 -145
-176 l-32 -67 -26 25 c-50 46 -209 165 -342 256 -109 74 -140 91 -169 90 -77
-1 -195 -71 -189 -112 2 -14 41 -47 118 -101 63 -43 178 -128 254 -187 160
-125 190 -138 269 -115 28 8 52 14 52 13 1 -1 -2 -47 -7 -102 -9 -114 4 -283
28 -366 9 -30 18 -82 21 -117 5 -60 4 -64 -31 -102 -19 -21 -37 -54 -40 -72
-10 -61 -26 -300 -26 -384 0 -68 -4 -90 -25 -131 l-26 -49 1 -304 c0 -369 5
-449 71 -1105 6 -60 31 -254 56 -430 43 -309 44 -323 32 -400 -8 -44 -14 -137
-13 -206 l0 -126 -40 -19 c-47 -23 -86 -75 -86 -113 0 -55 131 -242 222 -319
l32 -27 -48 -7 c-27 -4 -65 -18 -84 -32 -50 -36 -291 -306 -299 -335 -16 -61
56 -103 139 -81 49 14 94 54 230 209 107 121 135 162 122 183 -4 6 -3 9 2 6
187 -91 256 -112 419 -129 106 -11 276 -6 485 16 69 7 126 12 127 12 0 -1 -23
-63 -53 -137 -63 -157 -144 -401 -144 -436 0 -29 31 -39 101 -31 68 8 130 44
151 87 9 19 40 107 68 195 28 88 70 205 93 260 l43 100 69 -3 c39 -2 87 -7
108 -12 21 -4 244 -6 495 -3 264 3 569 1 722 -6 146 -6 438 -16 650 -22 l385
-12 37 -33 c39 -35 37 -34 253 -55 61 -5 137 -14 170 -19 136 -21 267 28 381
144 113 116 127 161 58 194 -19 9 -33 21 -31 26 60 158 188 598 243 831 21 90
35 128 56 152 30 36 35 56 43 198 9 144 29 314 85 706 28 190 57 408 65 485
11 104 19 142 31 149 254 160 509 341 597 424 68 63 68 102 4 141 -67 41 -138
19 -264 -83 -39 -32 -131 -98 -205 -148 l-133 -90 -7 158 c-6 153 -16 251 -39
360 -8 40 -6 91 5 209 47 471 -5 798 -154 967 -39 44 -45 47 -88 47 -26 0 -66
-9 -89 -19 l-41 -19 -21 22 c-12 12 -28 46 -36 74 -9 29 -20 52 -26 52 -6 0
-7 14 -4 34 10 50 -7 71 -88 109 -75 36 -234 90 -300 102 -20 4 -40 11 -43 16
-10 17 44 114 99 176 65 74 74 95 53 128 -18 27 -69 40 -122 32 -73 -12 -192
-132 -251 -253 l-25 -50 -112 4 c-84 4 -114 8 -122 20 -10 14 -21 14 -103 0
-104 -17 -102 -19 -77 68 51 172 59 365 19 454 -42 95 -117 140 -228 138 -38
0 -81 -3 -95 -5z m224 -1353 c63 -14 71 -28 58 -104 -8 -52 -8 -74 4 -113 38
-121 45 -203 42 -458 -5 -446 -1 -696 16 -890 47 -545 49 -635 30 -997 -20
-379 -15 -483 32 -708 17 -81 26 -160 27 -225 1 -90 -1 -106 -27 -162 -63
-139 -221 -223 -392 -210 -77 6 -127 26 -144 56 -17 33 -12 96 11 125 26 33
24 68 -17 303 l-26 148 7 475 c6 446 -1 709 -23 915 l-8 70 -18 -40 c-56 -124
-134 -398 -181 -630 -28 -138 -64 -280 -95 -371 -15 -41 -17 -61 -9 -75 15
-28 -7 -98 -43 -135 -41 -43 -189 -111 -282 -130 -89 -19 -157 -10 -218 26
-44 26 -54 64 -31 121 15 38 15 44 -6 117 -57 198 -148 417 -254 611 -79 144
-181 360 -243 516 -25 63 -48 115 -51 115 -5 0 -2 -107 18 -560 45 -1067 49
-1300 22 -1357 -36 -77 -176 -143 -301 -143 -95 0 -137 15 -195 68 -78 73 -93
127 -56 197 20 38 21 50 15 255 -4 118 -15 415 -26 660 -10 245 -22 591 -25
770 -8 413 -30 726 -66 902 -16 81 -13 310 5 403 24 121 66 240 98 279 41 50
137 94 231 107 148 20 267 -29 267 -110 0 -14 35 -100 79 -191 95 -200 206
-465 381 -908 137 -348 222 -544 308 -702 47 -87 52 -92 60 -70 211 568 332
944 436 1360 82 331 95 394 83 415 -5 9 -7 35 -4 57 9 64 101 148 201 185 102
37 234 51 310 33z"/>
<path d="M6396 6395 c-62 -22 -85 -43 -179 -168 -49 -64 -129 -160 -179 -213
-102 -108 -103 -120 -13 -118 87 2 148 39 256 151 89 94 231 274 252 321 8 18
8 25 -4 33 -21 13 -88 10 -133 -6z"/>
<path d="M360 2986 c-265 -69 -281 -75 -322 -116 -32 -31 -38 -44 -38 -79 0
-32 6 -48 25 -67 23 -23 32 -25 83 -21 79 6 480 112 511 135 69 52 86 127 36
169 -38 33 -100 29 -295 -21z"/>
<path d="M6351 2528 c-67 -46 -90 -130 -47 -173 33 -33 75 -37 351 -33 233 3
241 4 273 26 34 25 72 88 72 121 0 11 -11 33 -24 48 l-24 28 -284 3 c-282 3
-284 3 -317 -20z"/>
<path d="M6028 1203 c-43 -27 -52 -68 -28 -119 17 -35 57 -70 233 -202 117
-87 223 -164 234 -171 12 -6 40 -11 63 -11 35 0 48 6 77 35 30 30 34 40 29 66
-11 55 -47 90 -268 255 -211 158 -220 164 -266 164 -26 0 -59 -8 -74 -17z"/>
<path d="M4583 930 c-54 -31 -73 -54 -73 -88 0 -10 25 -79 56 -153 66 -161 94
-193 161 -186 55 6 129 50 149 89 15 30 15 33 -42 172 -34 81 -70 153 -85 169
-38 38 -96 37 -166 -3z"/>
<path d="M4235 640 c-47 -18 -105 -62 -105 -78 0 -28 270 -539 293 -555 33
-23 189 26 232 72 17 19 14 26 -78 198 -53 98 -117 223 -144 278 l-48 100 -50
2 c-31 2 -69 -5 -100 -17z"/>
</g>
</svg>
